<?xml version="1.0" ?>
<!-- Uploaded to: SVG Repo, www.svgrepo.com, Generator: SVG Repo Mixer Tools -->
<svg width="800px" height="800px" viewBox="0 0 512 512" id="Layer_1" version="1.1" xml:space="preserve" xmlns="http://www.w3.org/2000/svg" xmlns:xlink="http://www.w3.org/1999/xlink">
<style type="text/css">
	.st0{fill:#232020;}
</style>
<g>
<path class="st0" d="M435.6,363.5V130.2c0-16.2-13.2-29.4-29.4-29.4H105.8c-16.2,0-29.4,13.2-29.4,29.4v233.3H21v18.4   c0,16.2,13.2,29.4,29.4,29.4h411.1c16.2,0,29.4-13.2,29.4-29.4v-18.4H435.6z M90.4,130.2c0-8.5,6.9-15.4,15.4-15.4h300.4   c8.5,0,15.4,6.9,15.4,15.4v233.3h-13V140.6c0-7.6-6.2-13.8-13.8-13.8H117.2c-7.6,0-13.8,6.2-13.8,13.8v222.8h-13V130.2z    M196.8,377.5h116.5v2.2c0,2.8-2.3,5.1-5.1,5.1H201.9c-2.8,0-5.1-2.3-5.1-5.1V377.5z M401.7,363.5H110.3V140.6   c0-3.8,3.1-6.8,6.8-6.8h277.6c3.8,0,6.8,3.1,6.8,6.8V363.5z M477,381.8c0,8.5-6.9,15.4-15.4,15.4H50.5c-8.5,0-15.4-6.9-15.4-15.4   v-4.4h41.4h113.4v2.2c0,6.7,5.4,12.1,12.1,12.1h106.3c6.7,0,12.1-5.4,12.1-12.1v-2.2h115.3H477V381.8z"/>
<path class="st0" d="M269.1,205h54.4c1.9,0,3.5-1.6,3.5-3.5s-1.6-3.5-3.5-3.5h-54.4c-1.9,0-3.5,1.6-3.5,3.5S267.2,205,269.1,205z"/>
<path class="st0" d="M269.1,235.3h54.4c1.9,0,3.5-1.6,3.5-3.5s-1.6-3.5-3.5-3.5h-54.4c-1.9,0-3.5,1.6-3.5,3.5   S267.2,235.3,269.1,235.3z"/>
<path class="st0" d="M269.1,265.7h35c1.9,0,3.5-1.6,3.5-3.5s-1.6-3.5-3.5-3.5h-35c-1.9,0-3.5,1.6-3.5,3.5S267.2,265.7,269.1,265.7z   "/>
<path class="st0" d="M323.5,258.7h-9.7c-1.9,0-3.5,1.6-3.5,3.5s1.6,3.5,3.5,3.5h9.7c1.9,0,3.5-1.6,3.5-3.5S325.5,258.7,323.5,258.7   z"/>
<path class="st0" d="M269.1,219.6h16c1.9,0,3.5-1.6,3.5-3.5s-1.6-3.5-3.5-3.5h-16c-1.9,0-3.5,1.6-3.5,3.5S267.2,219.6,269.1,219.6z   "/>
<path class="st0" d="M323.5,212.6h-22.9c-1.9,0-3.5,1.6-3.5,3.5s1.6,3.5,3.5,3.5h22.9c1.9,0,3.5-1.6,3.5-3.5   S325.5,212.6,323.5,212.6z"/>
<path class="st0" d="M269.1,249.9h54.4c1.9,0,3.5-1.6,3.5-3.5s-1.6-3.5-3.5-3.5h-54.4c-1.9,0-3.5,1.6-3.5,3.5   S267.2,249.9,269.1,249.9z"/>
<path class="st0" d="M269.1,280.2h54.4c1.9,0,3.5-1.6,3.5-3.5s-1.6-3.5-3.5-3.5h-54.4c-1.9,0-3.5,1.6-3.5,3.5   S267.2,280.2,269.1,280.2z"/>
<path class="st0" d="M340.2,183.1h-72.9c-4.2,0-8.2,1.8-11,4.9c-0.1,0.1-0.2,0.2-0.3,0.4c-0.1-0.1-0.2-0.2-0.3-0.3   c-2.8-3.1-6.8-4.9-11-4.9h-72.9v3.8h-13.1v121.5h93.8h7h93.8V186.8h-13.1V183.1z M261.5,192.7c1.4-1.6,3.5-2.6,5.7-2.6h65.9v98.1   h-65.9h-7.8v-90.3C259.5,195.9,260.2,194.1,261.5,192.7z M250.5,192.7c1.3,1.4,2,3.2,2,5.2v90.3h-7.8h-65.9v-98.1h65.9   C246.9,190.1,249,191,250.5,192.7z M165.7,301.3V193.8h6.1v101.3h72.9c3.7,0,6.8,2.6,7.6,6.1H165.7z M346.3,193.8v107.5h-86.6   c0.7-3.5,3.9-6.1,7.6-6.1h72.9V193.8H346.3z"/>
<path class="st0" d="M188.5,205h54.4c1.9,0,3.5-1.6,3.5-3.5s-1.6-3.5-3.5-3.5h-54.4c-1.9,0-3.5,1.6-3.5,3.5S186.5,205,188.5,205z"/>
<path class="st0" d="M188.5,235.3h54.4c1.9,0,3.5-1.6,3.5-3.5s-1.6-3.5-3.5-3.5h-54.4c-1.9,0-3.5,1.6-3.5,3.5   S186.5,235.3,188.5,235.3z"/>
<path class="st0" d="M242.9,258.7h-35c-1.9,0-3.5,1.6-3.5,3.5s1.6,3.5,3.5,3.5h35c1.9,0,3.5-1.6,3.5-3.5S244.8,258.7,242.9,258.7z"/>
<path class="st0" d="M188.5,265.7h9.7c1.9,0,3.5-1.6,3.5-3.5s-1.6-3.5-3.5-3.5h-9.7c-1.9,0-3.5,1.6-3.5,3.5   S186.5,265.7,188.5,265.7z"/>
<path class="st0" d="M242.9,212.6h-16c-1.9,0-3.5,1.6-3.5,3.5s1.6,3.5,3.5,3.5h16c1.9,0,3.5-1.6,3.5-3.5S244.8,212.6,242.9,212.6z"/>
<path class="st0" d="M188.5,219.6h22.9c1.9,0,3.5-1.6,3.5-3.5s-1.6-3.5-3.5-3.5h-22.9c-1.9,0-3.5,1.6-3.5,3.5   S186.5,219.6,188.5,219.6z"/>
<path class="st0" d="M188.5,249.9h54.4c1.9,0,3.5-1.6,3.5-3.5s-1.6-3.5-3.5-3.5h-54.4c-1.9,0-3.5,1.6-3.5,3.5   S186.5,249.9,188.5,249.9z"/>
<path class="st0" d="M188.5,280.2h54.4c1.9,0,3.5-1.6,3.5-3.5s-1.6-3.5-3.5-3.5h-54.4c-1.9,0-3.5,1.6-3.5,3.5   S186.5,280.2,188.5,280.2z"/>
</g>
</svg>